<?xml version="1.0" standalone="no"?>
<!DOCTYPE svg PUBLIC "-//W3C//DTD SVG 20010904//EN"
 "http://www.w3.org/TR/2001/REC-SVG-20010904/DTD/svg10.dtd">
<svg version="1.0" xmlns="http://www.w3.org/2000/svg"
 width="16.000000pt" height="16.000000pt" viewBox="0 0 16.000000 16.000000"
 preserveAspectRatio="xMidYMid meet">
<metadata>
Created by potrace 1.11, written by Peter Selinger 2001-2013
</metadata>
<g transform="translate(0.000000,16.000000) scale(0.001518,-0.001518)"
fill="#000000" stroke="none">
<path d="M2840 7633 c0 -5 25 -71 55 -148 30 -77 55 -146 55 -155 0 -8 -36
-219 -82 -467 l-82 -453 -998 -2 -998 -3 125 -267 125 -266 -315 -1053 c-173
-579 -314 -1053 -312 -1055 2 -2 922 -329 1069 -380 l68 -23 26 87 c15 48 29
91 32 97 3 5 16 -42 29 -104 13 -63 24 -116 26 -118 9 -9 939 -334 944 -330 2
3 25 121 50 264 26 142 48 260 51 263 2 3 63 -57 136 -133 l131 -139 85 65
c1048 791 2441 973 3652 476 267 -110 586 -289 803 -453 l100 -75 50 52 c28
29 85 89 127 135 70 75 78 81 83 60 3 -13 25 -135 50 -272 24 -136 45 -249 47
-251 2 -2 496 171 1098 384 778 275 1095 392 1094 402 -1 8 -88 305 -194 661
-167 559 -196 647 -214 652 -12 3 -59 6 -106 6 -47 0 -91 4 -98 8 -8 6 17 30
82 77 88 64 93 70 85 94 -4 14 -47 156 -94 314 l-86 288 126 267 125 267 -988
3 -988 2 -81 462 -81 461 45 140 c24 77 47 146 50 153 4 12 -230 14 -1540 14
l-1544 0 -32 -90 c-18 -49 -34 -90 -36 -90 -1 0 -17 41 -35 90 l-32 90 -844 0
c-464 0 -844 -3 -844 -7z m1075 -623 c109 -176 199 -319 201 -317 1 1 -9 50
-22 107 l-26 105 16 143 16 143 -45 67 -45 67 196 3 c108 1 199 1 201 -1 2 -2
-10 -199 -27 -438 -16 -239 -30 -444 -30 -457 l0 -22 -232 2 -232 3 -150 258
c-135 230 -152 255 -157 229 -3 -16 -21 -133 -39 -260 l-34 -232 -168 0 c-92
0 -168 1 -168 3 0 6 40 232 45 253 3 15 29 32 87 59 91 41 90 46 -9 60 -29 4
-53 11 -53 16 0 5 20 123 45 261 25 139 45 255 45 260 0 4 87 8 193 8 l194 0
198 -320z m1125 179 l0 -140 -45 -106 c-25 -58 -45 -108 -45 -111 1 -4 112
107 248 246 l247 253 231 -3 230 -3 -198 -179 c-196 -178 -198 -180 -180 -200
10 -12 54 -63 97 -114 l78 -93 -48 -49 c-27 -27 -47 -52 -44 -54 2 -3 38 3 78
12 l75 16 48 -55 c27 -30 76 -87 109 -126 l60 -73 -243 0 -243 0 -111 171
-112 170 -116 -106 -116 -106 0 -65 0 -64 -164 0 -164 0 4 73 c6 98 34 758 34
807 l0 40 145 0 145 0 0 -141z m1530 132 c0 -4 -13 -36 -28 -70 l-28 -61 18
-217 c9 -120 17 -228 17 -240 l1 -23 283 0 282 1 -30 22 c-80 58 -79 55 -103
262 -23 183 -25 193 -63 263 l-40 72 203 -2 203 -3 11 -80 c6 -44 11 -81 10
-81 0 -1 -30 -8 -66 -15 l-65 -14 75 -46 75 -45 42 -275 c22 -151 44 -293 48
-316 l6 -43 -334 0 -335 0 -28 80 c-15 44 -29 79 -30 77 -2 -2 -14 -36 -26
-77 l-24 -75 -201 -3 -201 -2 -6 62 c-8 80 -46 771 -46 821 l0 37 190 0 c105
0 190 -4 190 -9z m-4688 -1233 c39 -194 223 -1035 227 -1040 4 -4 24 77 45
180 21 103 42 209 48 235 l10 48 94 47 c52 25 94 49 94 53 0 3 -36 14 -80 23
-73 16 -80 19 -75 39 3 12 16 77 30 144 l24 123 -34 82 c-19 45 -35 84 -35 85
0 2 115 3 255 3 l256 0 -7 -37 c-4 -21 -73 -409 -153 -863 l-146 -825 -102
-14 c-57 -8 -103 -18 -103 -21 0 -3 41 -26 90 -50 50 -24 90 -47 90 -50 1 -38
-147 -830 -155 -830 -5 0 -112 36 -237 81 -224 80 -226 82 -232 113 -3 17 -48
382 -101 811 -53 429 -99 787 -103 795 -3 8 -11 -77 -18 -190 l-13 -205 -115
-475 -114 -474 40 -79 c22 -44 34 -77 26 -75 -7 3 -130 47 -273 98 -143 51
-264 96 -268 100 -7 6 207 838 275 1071 l10 36 119 13 c66 7 119 15 119 19 0
4 -45 29 -100 56 -55 27 -100 51 -100 54 0 5 215 815 236 889 l15 52 229 0
228 0 4 -22z m2257 -10 c20 -17 67 -60 105 -96 l68 -64 -31 -506 c-18 -279
-34 -521 -37 -539 -4 -30 -9 -33 -92 -60 -48 -15 -91 -30 -95 -33 -4 -4 33
-24 83 -45 l90 -38 0 -46 c-1 -85 -27 -432 -33 -438 -4 -3 -71 -27 -149 -53
-261 -88 -598 -243 -845 -389 -56 -34 -105 -61 -109 -61 -7 0 -271 228 -280
241 -5 9 281 1948 293 1987 5 12 46 56 93 97 l85 74 409 1 408 0 37 -32z
m1684 -41 l78 -73 6 -96 6 -96 -39 -11 c-21 -5 -52 -13 -69 -17 -54 -12 -50
-17 31 -44 l79 -27 6 -164 c4 -90 10 -218 13 -284 l6 -120 -128 -44 c-70 -24
-130 -47 -135 -51 -4 -3 81 -165 189 -359 107 -194 194 -355 191 -357 -4 -4
-449 53 -452 58 -1 2 -64 120 -140 263 -76 143 -141 263 -144 268 -4 4 -70
-14 -147 -40 l-139 -48 -5 -217 c-3 -119 -8 -219 -11 -222 -9 -9 -368 -50
-375 -43 -6 5 43 1288 63 1675 l6 122 516 0 516 -1 78 -72z m1686 -204 c23
-153 45 -291 48 -308 5 -29 3 -28 -48 25 -29 30 -86 90 -127 133 l-74 77 -329
0 -329 0 0 -22 c0 -52 32 -394 39 -412 6 -15 13 -9 46 38 28 40 43 55 54 50 9
-3 196 -69 416 -145 220 -77 403 -143 407 -147 3 -4 19 -96 35 -204 l30 -197
-66 -20 c-36 -11 -78 -23 -93 -26 -16 -4 -28 -10 -28 -14 0 -3 45 -16 99 -29
55 -13 101 -28 104 -35 2 -7 24 -149 48 -317 l43 -306 -118 -146 -118 -146
-62 43 c-222 154 -589 324 -962 446 l-131 42 -12 206 c-6 113 -14 242 -18 286
l-6 80 140 -132 140 -132 219 -84 c352 -135 445 -169 448 -166 5 5 -61 509
-66 514 -2 3 -204 82 -449 175 -244 94 -448 175 -452 179 -8 8 -56 658 -57
762 l0 47 112 81 112 81 481 0 481 0 43 -277z m1136 187 c25 -49 47 -90 49
-90 2 0 10 41 17 90 l12 90 236 -2 236 -3 72 -285 c40 -156 71 -286 69 -287
-2 -2 -70 48 -152 111 l-149 115 -317 1 c-296 0 -318 -1 -318 -17 0 -10 22
-124 48 -253 l48 -235 319 -5 319 -5 68 -260 c37 -143 67 -263 67 -267 1 -4
-46 28 -103 72 l-104 80 -214 -1 c-117 -1 -262 -4 -322 -8 l-110 -6 94 -62 94
-62 58 -283 c32 -156 63 -307 69 -335 6 -29 16 -53 22 -53 15 0 725 245 733
252 3 3 19 90 37 192 18 102 34 186 37 186 3 0 50 -168 104 -372 54 -205 101
-378 103 -383 2 -6 -168 -72 -388 -150 -216 -77 -395 -141 -399 -143 -3 -1
-35 33 -70 77 -35 44 -67 78 -70 76 -4 -3 -10 -51 -14 -107 -4 -56 -8 -103 -9
-104 -30 -14 -470 -164 -473 -161 -3 3 -77 409 -164 904 -88 494 -161 910
-164 924 -4 23 2 30 54 60 33 19 60 37 60 40 0 4 -26 12 -59 19 -32 7 -63 15
-69 19 -6 4 -40 167 -75 364 l-64 357 369 0 368 0 45 -90z"/>
<path d="M3495 5748 c-3 -10 -65 -506 -65 -523 0 -1 -28 -6 -62 -9 -35 -4 -79
-11 -98 -15 l-35 -8 88 -44 c76 -38 87 -47 87 -69 0 -14 -18 -176 -40 -360
-22 -183 -38 -335 -37 -336 1 -2 52 15 112 38 61 22 169 55 240 73 119 30 130
34 133 56 19 174 109 1195 106 1201 -3 4 -100 8 -215 8 -159 0 -211 -3 -214
-12z"/>
<path d="M5047 5608 c-4 -83 -7 -179 -7 -212 -1 -61 -1 -61 -69 -141 -38 -44
-68 -82 -66 -83 3 -3 611 138 668 154 20 6 22 62 10 297 l-6 137 -262 0 -262
0 -6 -152z"/>
</g>
</svg>
